# xmcd
#
# Track frame offsets: 
#        150
#        22857
#        45525
#        62925
#        81125
#        106950
#        137312
#        156832
#        175782
#        198077
#
# Disc length: 2957 seconds
#
# Revision: 2
# Processed by: cddbd v1.5.2PL0 Copyright (c) Steve Scherf et al.
# Submitted via: ExactAudioCopy v0.95b1
#
DISCID=720b8b0a
DTITLE=Bonnie Raitt - Road Tested [CDTwo)
DYEAR=1995
DGENRE=Blues
TTITLE0=Longing In Their Hearts
TTITLE1=Come To Me
TTITLE2=Love Sneakin Up On You
TTITLE3=Burning Down The House
TTITLE4=I Can't Make You Love Me (w/ Bruce Hornsby)
TTITLE5=Feeling Of Falling
TTITLE6=I Believe I'm In Love With You (w/ Kim Wilson)
TTITLE7=Rock Steady (w/ Bryan Adams
TTITLE8=My Opening Farewell (w/ Jackson Browne)
TTITLE9=Angel From Montgomery (w/ Jackson Browne, Bruce Hornsby, Bryan
TTITLE9=Adams, and Kim Wilson)
EXTD=
EXTT0=with Glen Clark, harmony vocal
EXTT1=
EXTT2=
EXTT3=
EXTT4=with Bruce Hornsby, piano
EXTT5=
EXTT6=with Kim Wilson, vocal and harmonica
EXTT7=with Bryan Adams, vocal and guitar
EXTT8=with Jackson Browne, vocal and guitar
EXTT9=with Jackson Browne and Bruce Hornsby, vocals and accordion;\nBr
EXTT9=yan Adams and Kim Wilson
PLAYORDER=
